<svg width="24" height="24" viewBox="0 0 24 24" fill="none" xmlns="http://www.w3.org/2000/svg">
<path fill-rule="evenodd" clip-rule="evenodd" d="M20.1874 5.25517L20.62 7.12781C20.6776 7.37772 20.6742 7.6413 20.61 7.88907C20.5459 8.13684 20.4236 8.35902 20.2569 8.53076L20.1987 8.5874C19.912 8.84682 19.6965 9.19718 19.5781 9.59597C19.4597 9.99476 19.4437 10.4248 19.5319 10.834C19.62 11.2432 19.8087 11.6139 20.0749 11.9011C20.3411 12.1883 20.6734 12.3797 21.0316 12.452L21.1127 12.4664C21.3395 12.5009 21.5525 12.6126 21.7246 12.7875C21.8967 12.9624 22.0203 13.1926 22.0797 13.4489L22.5201 15.3555C22.5713 15.5766 22.5843 15.8072 22.5586 16.0342C22.5329 16.2611 22.4689 16.48 22.3703 16.6782C22.2717 16.8765 22.1404 17.0503 21.9839 17.1896C21.8274 17.329 21.6487 17.4312 21.4582 17.4905L6.2232 22.2265C5.83842 22.346 5.42849 22.2833 5.08356 22.0521C4.73863 21.821 4.48696 21.4403 4.38389 20.9939L3.96969 19.2002C3.90818 18.9332 3.91053 18.6518 3.97649 18.3863C4.04246 18.1208 4.16954 17.8811 4.34409 17.6931L4.4053 17.6321C4.68594 17.3664 4.89438 17.0123 5.00552 16.6123C5.11666 16.2124 5.12574 15.7837 5.03169 15.3779C4.93763 14.9721 4.74444 14.6065 4.47539 14.3251C4.20635 14.0438 3.87293 13.8588 3.51531 13.7923C3.26797 13.746 3.03744 13.6177 2.85149 13.4229C2.66554 13.2281 2.53209 12.9751 2.46722 12.6943L2.05114 10.8936C2.0001 10.6724 1.9871 10.4418 2.01288 10.2149C2.03867 9.98793 2.10273 9.7691 2.20142 9.57089C2.30011 9.37267 2.43149 9.19896 2.58805 9.05966C2.74461 8.92037 2.92328 8.81822 3.11387 8.75906L18.3477 4.02302C18.5383 3.96371 18.737 3.94854 18.9326 3.97837C19.1282 4.0082 19.3168 4.08244 19.4877 4.19686C19.6586 4.31128 19.8084 4.46364 19.9285 4.64522C20.0486 4.82681 20.1367 5.03407 20.1878 5.25517M18.6237 5.51964L3.51981 10.2152C3.3114 10.2801 3.18748 10.5289 3.24343 10.7707L3.54047 12.0573C4.18281 12.2075 4.77625 12.5627 5.25395 13.0831C5.73165 13.6035 6.07462 14.2683 6.24423 15.0026C6.41387 15.737 6.40339 16.5118 6.21397 17.2396C6.02454 17.9674 5.66371 18.6194 5.17211 19.1222L5.46915 20.4088C5.52548 20.6506 5.73953 20.7944 5.94794 20.7295L21.0515 16.0339C21.2599 15.969 21.3838 15.7202 21.3279 15.4784L21.0312 14.1922C20.3888 14.042 19.7953 13.6867 19.3176 13.1662C18.8399 12.6458 18.497 11.9809 18.3274 11.2465C18.1577 10.5121 18.1682 9.7374 18.3575 9.00957C18.5469 8.28173 18.9076 7.6297 19.3992 7.12693L19.1021 5.84032C19.0889 5.78275 19.066 5.72879 19.0347 5.68151C19.0035 5.63423 18.9645 5.59456 18.9201 5.56477C18.8756 5.53499 18.8265 5.51567 18.7756 5.50793C18.7247 5.50018 18.6733 5.50416 18.6237 5.51964ZM18.1415 14.9129C18.1798 15.0787 18.1896 15.2516 18.1702 15.4218C18.1509 15.592 18.1028 15.7561 18.0289 15.9047C17.9549 16.0534 17.8564 16.1837 17.739 16.2881C17.6216 16.3926 17.4876 16.4692 17.3447 16.5136C17.2018 16.558 17.0527 16.5693 16.906 16.5469C16.7594 16.5245 16.6179 16.4687 16.4898 16.3829C16.3617 16.297 16.2494 16.1827 16.1594 16.0465C16.0693 15.9103 16.0033 15.7549 15.965 15.5891C15.8877 15.2542 15.9283 14.8974 16.0777 14.5972C16.2271 14.297 16.4732 14.078 16.7619 13.9883C17.0505 13.8987 17.358 13.9457 17.6167 14.1191C17.8755 14.2925 18.0643 14.578 18.1415 14.9129ZM17.3642 11.5458C17.4415 11.8807 17.4011 12.2375 17.2517 12.5377C17.1022 12.838 16.8562 13.057 16.5675 13.1468C16.2789 13.2365 15.9714 13.1895 15.7126 13.0162C15.4538 12.8428 15.265 12.5573 15.1877 12.2224C15.1148 11.8893 15.1578 11.5363 15.3076 11.2397C15.4574 10.9432 15.7018 10.7271 15.988 10.6381C16.2741 10.5491 16.5789 10.5945 16.8364 10.7644C17.0939 10.9343 17.2838 11.215 17.3642 11.5458ZM16.5861 8.17915C16.6244 8.34496 16.6342 8.5179 16.6149 8.6881C16.5956 8.85829 16.5475 9.02241 16.4736 9.17107C16.3996 9.31974 16.3011 9.45004 16.1837 9.55454C16.0663 9.65904 15.9324 9.73569 15.7895 9.78012C15.6465 9.82455 15.4975 9.83589 15.3508 9.81348C15.2041 9.79107 15.0627 9.73536 14.9345 9.64953C14.8064 9.5637 14.6941 9.44942 14.604 9.31323C14.514 9.17704 14.4479 9.0216 14.4096 8.85579C14.3323 8.52091 14.3728 8.16411 14.5222 7.86386C14.6716 7.56362 14.9176 7.34454 15.2063 7.25481C15.4949 7.16508 15.8024 7.21206 16.0612 7.38541C16.32 7.55875 16.5088 7.84427 16.5861 8.17915ZM12.6946 2.45755L13.6529 4.04524C13.6669 4.06876 13.6803 4.09258 13.6931 4.11669L4.52471 6.96703L10.6025 2.02926C10.9289 1.7643 11.3326 1.66057 11.7248 1.74089C12.1171 1.8212 12.4661 2.07899 12.6946 2.45755Z" fill="#6A6A6A"/>
</svg>
