<svg width="25" height="25" viewBox="0 0 25 25" fill="none" xmlns="http://www.w3.org/2000/svg">
<path d="M16.6668 2.08337V6.25004M8.3335 2.08337V6.25004" stroke="#222831" stroke-width="1.5" stroke-linecap="round" stroke-linejoin="round"/>
<path d="M13.5417 4.16663H11.4583C7.52996 4.16663 5.56578 4.16663 4.34539 5.38701C3.125 6.60741 3.125 8.57158 3.125 12.5V14.5833C3.125 18.5116 3.125 20.4759 4.34539 21.6962C5.56578 22.9166 7.52996 22.9166 11.4583 22.9166H13.5417C17.47 22.9166 19.4343 22.9166 20.6546 21.6962C21.875 20.4759 21.875 18.5116 21.875 14.5833V12.5C21.875 8.57158 21.875 6.60741 20.6546 5.38701C19.4343 4.16663 17.47 4.16663 13.5417 4.16663Z" stroke="#222831" stroke-width="1.5" stroke-linecap="round" stroke-linejoin="round"/>
<path d="M3.125 10.4166H21.875" stroke="#222831" stroke-width="1.5" stroke-linecap="round" stroke-linejoin="round"/>
<path d="M10.4167 19.271L10.4167 14.4244C10.4167 14.2247 10.2742 14.0627 10.0985 14.0627H9.375M14.5833 19.2691L16.1307 14.4711C16.1407 14.4402 16.1458 14.4078 16.1458 14.3752C16.1458 14.2027 16.0059 14.0627 15.8333 14.0627L13.5417 14.0625" stroke="#222831" stroke-width="1.5" stroke-linecap="round" stroke-linejoin="round"/>
</svg>
