<svg width="28" height="28" viewBox="0 0 28 28" fill="none" xmlns="http://www.w3.org/2000/svg">
<path d="M16.1342 21.6486C21.537 21.6486 25.9168 17.2688 25.9168 11.866C25.9168 6.46319 21.537 2.08337 16.1342 2.08337C10.7314 2.08337 6.35156 6.46319 6.35156 11.866C6.35156 17.2688 10.7314 21.6486 16.1342 21.6486Z" stroke="#222831" stroke-width="1.5" stroke-linecap="round"/>
<path d="M2.40222 12.953C1.46275 14.3887 0.916504 16.1047 0.916504 17.9485C0.916504 22.9936 5.00634 27.0834 10.0514 27.0834C11.8952 27.0834 13.6113 26.5372 15.0469 25.5977" stroke="#222831" stroke-width="1.5" stroke-linecap="round"/>
<path d="M18.057 10.2097C17.822 9.09429 16.6259 8.08782 15.1901 8.84077C13.7543 9.59373 13.5263 12.0163 15.698 12.2737C16.6797 12.39 17.3196 12.1387 17.9055 12.8496C18.4914 13.5604 18.6003 15.5372 17.1025 16.07C15.6046 16.6028 14.1215 15.7703 13.96 14.5883M16.1167 7.51819V8.58087M16.1167 16.234V17.3008" stroke="#222831" stroke-width="1.5" stroke-linecap="round" stroke-linejoin="round"/>
</svg>
