<svg width="17" height="17" viewBox="0 0 17 17" fill="none" xmlns="http://www.w3.org/2000/svg">
<path d="M13.8125 3.89587L13.3735 10.997C13.2613 12.8112 13.2053 13.7184 12.7506 14.3706C12.5257 14.6931 12.2362 14.9652 11.9005 15.1697C11.2215 15.5834 10.3126 15.5834 8.49483 15.5834C6.67471 15.5834 5.76463 15.5834 5.08516 15.1689C4.74923 14.9641 4.45967 14.6914 4.2349 14.3684C3.78029 13.7152 3.72544 12.8068 3.61577 10.99L3.1875 3.89587" stroke="#50555C" stroke-linecap="round"/>
<path d="M2.125 3.89579H14.875M11.3728 3.89579L10.8893 2.89827C10.568 2.23564 10.4074 1.90433 10.1304 1.6977C10.069 1.65186 10.0039 1.61109 9.93579 1.57579C9.62901 1.41663 9.26082 1.41663 8.52444 1.41663C7.76957 1.41663 7.39217 1.41663 7.08027 1.58246C7.01115 1.61922 6.94519 1.66164 6.88308 1.70929C6.60283 1.92429 6.44628 2.26772 6.13318 2.9546L5.70415 3.89579" stroke="#50555C" stroke-linecap="round"/>
</svg>
