<svg width="24" height="25" viewBox="0 0 24 25" fill="none" xmlns="http://www.w3.org/2000/svg">
<path d="M12 7.25C15.79 7.25 19.17 9.38 20.82 12.75C19.17 16.12 15.79 18.25 12 18.25C8.21 18.25 4.83 16.12 3.18 12.75C4.83 9.38 8.21 7.25 12 7.25ZM12 5.25C7 5.25 2.73 8.36 1 12.75C2.73 17.14 7 20.25 12 20.25C17 20.25 21.27 17.14 23 12.75C21.27 8.36 17 5.25 12 5.25ZM12 10.25C13.38 10.25 14.5 11.37 14.5 12.75C14.5 14.13 13.38 15.25 12 15.25C10.62 15.25 9.5 14.13 9.5 12.75C9.5 11.37 10.62 10.25 12 10.25ZM12 8.25C9.52 8.25 7.5 10.27 7.5 12.75C7.5 15.23 9.52 17.25 12 17.25C14.48 17.25 16.5 15.23 16.5 12.75C16.5 10.27 14.48 8.25 12 8.25Z" fill="#6A6A6A"/>
</svg>
