<svg width="24" height="25" viewBox="0 0 19 19" fill="none" xmlns="http://www.w3.org/2000/svg">
<path d="M11.6506 7.3495L7.34954 11.6505C6.79704 11.098 6.45703 10.3415 6.45703 9.50003C6.45703 7.81701 7.81705 6.45699 9.50006 6.45699C10.3416 6.45699 11.0981 6.797 11.6506 7.3495Z" stroke="#6A6A6A" stroke-opacity="0.6" stroke-width="1.5" stroke-linecap="round" stroke-linejoin="round"/>
<path d="M14.447 4.20452C12.9595 3.08251 11.2595 2.4705 9.49996 2.4705C6.49942 2.4705 3.70289 4.23852 1.75637 7.29856C0.991365 8.49707 0.991365 10.5116 1.75637 11.7101C2.42788 12.7641 3.20989 13.6736 4.0599 14.4046" stroke="#6A6A6A" stroke-opacity="0.6" stroke-width="1.5" stroke-linecap="round" stroke-linejoin="round"/>
<path d="M6.45703 15.9008C7.42604 16.3088 8.45455 16.5298 9.50006 16.5298C12.5006 16.5298 15.2971 14.7618 17.2436 11.7018C18.0087 10.5033 18.0087 8.48873 17.2436 7.29022C16.9631 6.84821 16.6571 6.43171 16.3426 6.0407" stroke="#6A6A6A" stroke-opacity="0.6" stroke-width="1.5" stroke-linecap="round" stroke-linejoin="round"/>
<path d="M12.4839 10.0953C12.2629 11.2938 11.2854 12.2713 10.0869 12.4923" stroke="#6A6A6A" stroke-opacity="0.6" stroke-width="1.5" stroke-linecap="round" stroke-linejoin="round"/>
<path d="M7.34957 11.6504L1 18" stroke="#6A6A6A" stroke-opacity="0.6" stroke-width="1.5" stroke-linecap="round" stroke-linejoin="round"/>
<path d="M18.0004 1L11.6509 7.34957" stroke="#6A6A6A" stroke-opacity="0.6" stroke-width="1.5" stroke-linecap="round" stroke-linejoin="round"/>
</svg>
