<svg width="10" height="9" viewBox="0 0 10 9" fill="none" xmlns="http://www.w3.org/2000/svg">
<path d="M5.27402 1.67487L5 1.96415L4.72598 1.67488C3.87361 0.77505 2.49165 0.775049 1.63928 1.67487C0.8098 2.55054 0.784313 3.96174 1.58157 4.87014L3.8721 7.47999C4.48061 8.17334 5.51937 8.17334 6.12789 7.47999L8.41843 4.87013C9.21569 3.96173 9.1902 2.55053 8.36072 1.67487C7.50835 0.775043 6.12639 0.775044 5.27402 1.67487Z" fill="#ffffff"/>
<path d="M6.99999 2.29251C7.44182 2.29251 7.79999 2.66122 7.79999 3.11604M5 1.96415L5.27402 1.67487C6.12639 0.775044 7.50835 0.775043 8.36072 1.67487C9.1902 2.55053 9.21569 3.96173 8.41843 4.87013L6.12789 7.47999C5.51938 8.17334 4.48061 8.17334 3.8721 7.47999L1.58157 4.87014C0.784313 3.96174 0.8098 2.55054 1.63928 1.67487C2.49165 0.775049 3.87361 0.77505 4.72598 1.67488L5 1.96415Z" stroke="#ffffff" stroke-width="0.5" stroke-linecap="round" stroke-linejoin="round"/>
</svg>
