<svg width="22" height="22" viewBox="0 0 22 22" fill="none" xmlns="http://www.w3.org/2000/svg">
<path d="M11 1.83337C13.188 1.83337 15.2865 2.70257 16.8336 4.24974C18.3808 5.79692 19.25 7.89534 19.25 10.0834C19.25 12.9012 17.7137 15.2075 16.0948 16.8621C15.286 17.6799 14.4035 18.4212 13.4585 19.0768L13.068 19.3426L12.8847 19.4645L12.5391 19.6845L12.2311 19.8725L11.8498 20.0943C11.5909 20.242 11.298 20.3197 11 20.3197C10.702 20.3197 10.4091 20.242 10.1502 20.0943L9.76892 19.8725L9.29225 19.5791L9.11625 19.4645L8.74042 19.2143C7.72093 18.5245 6.77133 17.7367 5.90517 16.8621C4.28633 15.2066 2.75 12.9012 2.75 10.0834C2.75 7.89534 3.61919 5.79692 5.16637 4.24974C6.71354 2.70257 8.81196 1.83337 11 1.83337ZM11 7.33337C10.6389 7.33337 10.2813 7.4045 9.94762 7.54271C9.61398 7.68091 9.31082 7.88347 9.05546 8.13883C8.8001 8.39419 8.59753 8.69735 8.45933 9.03099C8.32113 9.36464 8.25 9.72224 8.25 10.0834C8.25 10.4445 8.32113 10.8021 8.45933 11.1358C8.59753 11.4694 8.8001 11.7726 9.05546 12.0279C9.31082 12.2833 9.61398 12.4858 9.94762 12.624C10.2813 12.7622 10.6389 12.8334 11 12.8334C11.7293 12.8334 12.4288 12.5436 12.9445 12.0279C13.4603 11.5122 13.75 10.8127 13.75 10.0834C13.75 9.35403 13.4603 8.65456 12.9445 8.13883C12.4288 7.62311 11.7293 7.33337 11 7.33337Z" fill="#222831"/>
</svg>
