<svg width="17" height="17" viewBox="0 0 17 17" fill="none" xmlns="http://www.w3.org/2000/svg">
<path d="M3.11139 2.83391C2.83325 3.2696 2.83325 3.83322 2.83325 4.96044V12.0395C2.83325 13.1667 2.83325 13.7303 3.11139 14.166C3.16106 14.2438 3.21674 14.3176 3.27792 14.3868C3.62052 14.7738 4.16255 14.9287 5.24661 15.2383C6.33341 15.5488 6.87682 15.704 7.27025 15.4712C7.33854 15.4308 7.402 15.3829 7.45959 15.3284C7.79159 15.0141 7.79159 14.4491 7.79159 13.319V3.6809C7.79159 2.55082 7.79159 1.98578 7.45959 1.6715C7.402 1.617 7.33854 1.56911 7.27025 1.52873C6.87682 1.2959 6.33341 1.45112 5.24661 1.76158C4.16255 2.07125 3.62052 2.22609 3.27792 2.61318C3.21674 2.6823 3.16106 2.7561 3.11139 2.83391Z" stroke="#50555C" stroke-linecap="round" stroke-linejoin="round"/>
<path d="M7.79175 2.83337H9.22053C10.5676 2.83337 11.241 2.83337 11.6595 3.24831C11.8929 3.47964 11.9961 3.78958 12.0417 4.25004M7.79175 14.1667H9.22053C10.5676 14.1667 11.241 14.1667 11.6595 13.7518C11.8929 13.5204 11.9961 13.2105 12.0417 12.75" stroke="#50555C" stroke-linecap="round" stroke-linejoin="round"/>
<path d="M14.8751 8.5H9.91675M13.8126 6.72913C13.8126 6.72913 15.5834 8.03335 15.5834 8.5C15.5834 8.96665 13.8126 10.2708 13.8126 10.2708" stroke="#50555C" stroke-linecap="round" stroke-linejoin="round"/>
</svg>
