<svg width="16" height="16" viewBox="0 0 16 16" fill="none" xmlns="http://www.w3.org/2000/svg">
<path d="M7.38098 2.71303C5.50873 2.99569 4.01139 4.542 3.78626 6.5294L3.55634 8.55904C3.49921 9.06336 3.29481 9.53795 2.97017 9.92007C2.28123 10.731 2.84038 12 3.88659 12H12.1131C13.1593 12 13.7184 10.731 13.0295 9.92007C12.7049 9.53795 12.5005 9.06336 12.4433 8.55904L12.2914 7.21786M9.99984 13.3334C9.70871 14.1102 8.92319 14.6667 7.99984 14.6667C7.07648 14.6667 6.29096 14.1102 5.99984 13.3334M13.3332 3.33337C13.3332 4.43794 12.4377 5.33337 11.3332 5.33337C10.2286 5.33337 9.33317 4.43794 9.33317 3.33337C9.33317 2.2288 10.2286 1.33337 11.3332 1.33337C12.4377 1.33337 13.3332 2.2288 13.3332 3.33337Z" stroke="#28303F" stroke-linecap="round"/>
</svg>
