<svg width="17" height="17" viewBox="0 0 17 17" fill="none" xmlns="http://www.w3.org/2000/svg">
<path d="M10.9791 12.75C10.9791 14.1192 9.86913 15.2292 8.49992 15.2292C7.13071 15.2292 6.02075 14.1192 6.02075 12.75" stroke="#50555C" stroke-linecap="round" stroke-linejoin="round"/>
<path d="M13.622 12.75H3.37795C2.68596 12.75 2.125 12.189 2.125 11.4971C2.125 11.1648 2.257 10.8461 2.49198 10.6111L2.91927 10.1838C3.31778 9.78531 3.54167 9.24478 3.54167 8.68123V6.72921C3.54167 3.9908 5.76159 1.77087 8.5 1.77087C11.2384 1.77087 13.4583 3.99079 13.4583 6.72921V8.68123C13.4583 9.24478 13.6822 9.78531 14.0807 10.1838L14.508 10.6111C14.743 10.8461 14.875 11.1648 14.875 11.4971C14.875 12.189 14.314 12.75 13.622 12.75Z" stroke="#50555C" stroke-linecap="round" stroke-linejoin="round"/>
</svg>
