<svg width="24" height="24" viewBox="0 0 24 24" fill="none" xmlns="http://www.w3.org/2000/svg">
<path fill-rule="evenodd" clip-rule="evenodd" d="M19.272 16.137L17.442 17.967C14.752 20.656 13.408 22 11.738 22C10.067 22 8.723 20.656 6.034 17.967C3.344 15.277 2 13.933 2 12.262C2 10.592 3.344 9.24699 6.033 6.55799L7.863 4.72799C9.409 3.18299 10.181 2.40999 11.184 2.12299C12.187 1.83499 13.252 2.08099 15.381 2.57299L16.609 2.85599C18.401 3.26899 19.297 3.47599 19.911 4.08899C20.525 4.70199 20.731 5.59899 21.144 7.39099L21.428 8.61899C21.919 10.749 22.165 11.813 21.878 12.816C21.59 13.819 20.817 14.592 19.272 16.137ZM9.672 11.146C10.344 10.473 11.31 10.478 12.075 10.881C12.2191 10.7812 12.3936 10.7351 12.5682 10.7506C12.7428 10.766 12.9064 10.8422 13.0307 10.9658C13.155 11.0894 13.2321 11.2526 13.2486 11.4271C13.2651 11.6016 13.2199 11.7763 13.121 11.921C13.301 12.261 13.397 12.634 13.393 13.006C13.3911 13.2049 13.3103 13.3949 13.1684 13.5343C13.0264 13.6736 12.8349 13.7508 12.636 13.749C12.4371 13.7471 12.2471 13.6663 12.1077 13.5244C11.9684 13.3824 11.8911 13.1909 11.893 12.992C11.8844 12.7604 11.7849 12.5416 11.616 12.383C11.229 11.996 10.841 12.097 10.732 12.206C10.623 12.316 10.522 12.703 10.909 13.09C11.693 13.874 11.953 15.228 11.086 16.095C10.413 16.768 9.447 16.763 8.682 16.36C8.53786 16.4591 8.3636 16.5048 8.18938 16.489C8.01515 16.4732 7.85191 16.3971 7.72792 16.2736C7.60392 16.1502 7.52696 15.9874 7.51036 15.8132C7.49376 15.6391 7.53855 15.4646 7.637 15.32C7.39078 14.8713 7.30874 14.3507 7.405 13.848C7.44505 13.6531 7.56089 13.482 7.72705 13.3725C7.8932 13.263 8.09607 13.2239 8.291 13.264C8.48593 13.304 8.65697 13.4199 8.7665 13.586C8.87602 13.7522 8.91505 13.9551 8.875 14.15C8.838 14.327 8.896 14.613 9.141 14.858C9.529 15.245 9.916 15.144 10.025 15.035C10.134 14.925 10.235 14.538 9.848 14.151C9.064 13.367 8.804 12.013 9.672 11.146ZM13.707 10.02C13.8928 10.2057 14.1133 10.353 14.3559 10.4534C14.5986 10.5539 14.8587 10.6056 15.1214 10.6055C15.384 10.6055 15.6441 10.5537 15.8867 10.4532C16.1294 10.3526 16.3498 10.2052 16.5355 10.0195C16.7212 9.83373 16.8685 9.61322 16.9689 9.37055C17.0694 9.12787 17.1211 8.86779 17.121 8.60513C17.121 8.34248 17.0692 8.08242 16.9687 7.83978C16.8681 7.59714 16.7208 7.37668 16.535 7.19099C16.1598 6.81597 15.6511 6.60534 15.1206 6.60544C14.5902 6.60553 14.0815 6.81634 13.7065 7.19149C13.3315 7.56664 13.1209 8.0754 13.1209 8.60584C13.121 9.13629 13.3319 9.64497 13.707 10.02Z" fill="#222831"/>
</svg>
