<svg width="15" height="15" viewBox="0 0 15 15" fill="none" xmlns="http://www.w3.org/2000/svg">
<path d="M8.57975 2.15261L9.67962 4.37055C9.82962 4.67929 10.2296 4.97544 10.5671 5.03214L12.5606 5.36609C13.8354 5.58033 14.1354 6.51287 13.2167 7.43281L11.6669 8.99544C11.4044 9.26006 11.2607 9.77044 11.3419 10.1359L11.7857 12.0703C12.1356 13.6014 11.3294 14.1937 9.98587 13.3935L8.11731 12.2782C7.77987 12.0766 7.22369 12.0766 6.87994 12.2782L5.01142 13.3935C3.67406 14.1937 2.86166 13.5951 3.21162 12.0703L3.65532 10.1359C3.73656 9.77044 3.59282 9.26006 3.33035 8.99544L1.78052 7.43281C0.868125 6.51287 1.16184 5.58033 2.4367 5.36609L4.43023 5.03214C4.76144 4.97544 5.1614 4.67929 5.31138 4.37055L6.41125 2.15261C7.01119 0.94913 7.98606 0.94913 8.57975 2.15261Z" fill="#CFBE00"/>
</svg>
