<svg width="17" height="17" viewBox="0 0 17 17" fill="none" xmlns="http://www.w3.org/2000/svg">
<path d="M1.74565 6.61845C1.5696 6.61845 1.40895 6.47575 1.41704 6.28922C1.46444 5.19691 1.59724 4.48582 1.96931 3.9233C2.18337 3.59968 2.44925 3.31821 2.75496 3.09161C3.58124 2.47913 4.7469 2.47913 7.07822 2.47913H9.92199C12.2533 2.47913 13.419 2.47913 14.2452 3.09161C14.551 3.31821 14.8168 3.59968 15.0308 3.9233C15.4029 4.48576 15.5357 5.19675 15.5831 6.28885C15.5912 6.4756 15.4303 6.61845 15.2541 6.61845C14.2725 6.61845 13.4768 7.46083 13.4768 8.49996C13.4768 9.53908 14.2725 10.3814 15.2541 10.3814C15.4303 10.3814 15.5912 10.5243 15.5831 10.7111C15.5357 11.8032 15.4029 12.5142 15.0308 13.0766C14.8168 13.4002 14.551 13.6817 14.2452 13.9083C13.419 14.5208 12.2533 14.5208 9.92199 14.5208H7.07822C4.7469 14.5208 3.58124 14.5208 2.75496 13.9083C2.44925 13.6817 2.18337 13.4002 1.96931 13.0766C1.59724 12.5141 1.46444 11.803 1.41704 10.7107C1.40895 10.5242 1.5696 10.3814 1.74565 10.3814C2.72725 10.3814 3.52299 9.53908 3.52299 8.49996C3.52299 7.46083 2.72725 6.61845 1.74565 6.61845Z" stroke="#50555C" stroke-linejoin="round"/>
<path d="M6.375 2.47913V14.5208" stroke="#50555C" stroke-linecap="round" stroke-linejoin="round"/>
</svg>
