<svg width="17" height="17" viewBox="0 0 17 17" fill="none" xmlns="http://www.w3.org/2000/svg">
<path d="M13.4583 7.43746V7.08326C13.4583 4.412 13.4582 3.07633 12.6284 2.24647C11.7985 1.41663 10.4629 1.41663 7.79162 1.41663C5.12042 1.41663 3.78477 1.41667 2.9549 2.2465C2.12506 3.07636 2.12505 4.41197 2.12503 7.08321L2.125 10.2708C2.12498 12.5994 2.12497 13.7637 2.76808 14.5474C2.88584 14.6909 3.0174 14.8224 3.16089 14.9402C3.94455 15.5833 5.10885 15.5833 7.43746 15.5833" stroke="#50555C" stroke-linecap="round" stroke-linejoin="round"/>
<path d="M4.95825 4.95837H10.6249M4.95825 7.79171H7.79159" stroke="#50555C" stroke-linecap="round" stroke-linejoin="round"/>
<path d="M12.75 13.1042L11.6875 12.7146V10.9792M8.5 12.3959C8.5 14.1563 9.92708 15.5834 11.6875 15.5834C13.4479 15.5834 14.875 14.1563 14.875 12.3959C14.875 10.6355 13.4479 9.20837 11.6875 9.20837C9.92708 9.20837 8.5 10.6355 8.5 12.3959Z" stroke="#50555C" stroke-linecap="round" stroke-linejoin="round"/>
</svg>
