<svg width="21" height="21" viewBox="0 0 21 21" fill="none" xmlns="http://www.w3.org/2000/svg">
<path d="M15.7501 12.25C15.2331 12.2534 14.7233 12.3713 14.2573 12.5952C13.7913 12.8191 13.3808 13.1435 13.0551 13.545L8.59257 11.4887C8.80238 10.8463 8.80238 10.1537 8.59257 9.51123L13.0551 7.45498C13.5815 8.0902 14.3154 8.51905 15.1272 8.66584C15.939 8.81263 16.7766 8.66793 17.4922 8.25727C18.2077 7.84661 18.7551 7.1964 19.0379 6.42138C19.3207 5.64636 19.3206 4.79636 19.0377 4.0214C18.7548 3.24643 18.2072 2.59632 17.4916 2.18579C16.776 1.77526 15.9384 1.63071 15.1266 1.77765C14.3148 1.92459 13.581 2.35357 13.0547 2.98889C12.5284 3.6242 12.2434 4.42501 12.2501 5.24998C12.2527 5.45843 12.2732 5.66628 12.3113 5.87123L7.69132 7.99748C7.19876 7.51586 6.57503 7.19031 5.89828 7.0616C5.22152 6.9329 4.52182 7.00677 3.88686 7.27397C3.2519 7.54116 2.70991 7.9898 2.3288 8.56366C1.94768 9.13752 1.74438 9.81109 1.74438 10.5C1.74438 11.1889 1.94768 11.8624 2.3288 12.4363C2.70991 13.0102 3.2519 13.4588 3.88686 13.726C4.52182 13.9932 5.22152 14.0671 5.89828 13.9384C6.57503 13.8097 7.19876 13.4841 7.69132 13.0025L12.3113 15.1287C12.2732 15.3337 12.2527 15.5415 12.2501 15.75C12.2501 16.4422 12.4553 17.1189 12.8399 17.6945C13.2245 18.27 13.7711 18.7187 14.4107 18.9836C15.0502 19.2485 15.754 19.3178 16.4329 19.1827C17.1118 19.0477 17.7355 18.7143 18.2249 18.2249C18.7144 17.7354 19.0478 17.1117 19.1828 16.4328C19.3179 15.7539 19.2486 15.0501 18.9837 14.4106C18.7187 13.771 18.2701 13.2244 17.6946 12.8398C17.119 12.4553 16.4423 12.25 15.7501 12.25ZM15.7501 3.49998C16.0962 3.49998 16.4345 3.60261 16.7223 3.79491C17.0101 3.9872 17.2344 4.26051 17.3669 4.58028C17.4993 4.90005 17.534 5.25192 17.4664 5.59139C17.3989 5.93085 17.2322 6.24267 16.9875 6.48742C16.7428 6.73216 16.4309 6.89883 16.0915 6.96635C15.752 7.03388 15.4001 6.99922 15.0804 6.86677C14.7606 6.73431 14.4873 6.51001 14.295 6.22223C14.1027 5.93444 14.0001 5.5961 14.0001 5.24998C14.0001 4.78585 14.1844 4.34073 14.5126 4.01254C14.8408 3.68435 15.2859 3.49998 15.7501 3.49998ZM5.25007 12.25C4.90395 12.25 4.56561 12.1473 4.27782 11.9551C3.99004 11.7628 3.76573 11.4894 3.63328 11.1697C3.50083 10.8499 3.46617 10.498 3.5337 10.1586C3.60122 9.8191 3.76789 9.50728 4.01263 9.26254C4.25738 9.0178 4.5692 8.85113 4.90866 8.7836C5.24813 8.71608 5.6 8.75074 5.91977 8.88319C6.23954 9.01564 6.51285 9.23994 6.70514 9.52773C6.89743 9.81552 7.00007 10.1539 7.00007 10.5C7.00007 10.9641 6.8157 11.4092 6.48751 11.7374C6.15932 12.0656 5.7142 12.25 5.25007 12.25ZM15.7501 17.5C15.404 17.5 15.0656 17.3973 14.7778 17.2051C14.49 17.0128 14.2657 16.7394 14.1333 16.4197C14.0008 16.0999 13.9662 15.748 14.0337 15.4086C14.1012 15.0691 14.2679 14.7573 14.5126 14.5125C14.7574 14.2678 15.0692 14.1011 15.4087 14.0336C15.7481 13.9661 16.1 14.0007 16.4198 14.1332C16.7395 14.2656 17.0128 14.4899 17.2051 14.7777C17.3974 15.0655 17.5001 15.4039 17.5001 15.75C17.5001 16.2141 17.3157 16.6592 16.9875 16.9874C16.6593 17.3156 16.2142 17.5 15.7501 17.5Z" fill="#222831"/>
</svg>
